<svg id="Layer_1" enable-background="new 0 0 512 512" height="512" viewBox="0 0 512 512" width="512" xmlns="http://www.w3.org/2000/svg"><g id="XMLID_983_"><g id="XMLID_346_"><g id="XMLID_583_"><g id="XMLID_584_"><g id="XMLID_585_"><g id="XMLID_586_"><g id="XMLID_587_"><g id="XMLID_588_"><g id="XMLID_589_"><g id="XMLID_590_"><g id="XMLID_591_"><g id="XMLID_592_"><g id="XMLID_593_"><g id="XMLID_594_"><g id="XMLID_595_"><g id="XMLID_596_"><circle id="XMLID_597_" cx="256" cy="256" fill="#00e9f6" r="256"/></g></g></g></g></g></g></g></g></g></g></g></g></g></g></g><path id="XMLID_1203_" d="m512 256c0-2.724-.057-5.434-.142-8.138l-100.388-100.388-201.918 13.474-60.868-60.781-77.482 30 68.192 68.44 3.87 174.065 46.235 46.163c.608 8.557 4.215 13.822 4.215 13.822l79.094 78.779c133.547-8.658 239.192-119.7 239.192-255.436z" fill="#2ebff0"/><g id="XMLID_821_"><g id="XMLID_956_"><g id="XMLID_900_"><g id="XMLID_859_"><path id="XMLID_969_" d="m369.473 318.154h-212.979l-16.248-170.68h271.224v128.682c0 23.195-18.803 41.998-41.997 41.998z" fill="#ff6378"/></g><g id="XMLID_253_"><path id="XMLID_278_" d="m411.47 147.47v128.69c0 23.19-18.8 41.99-42 41.99h-93.61v-170.68z" fill="#ed1c86"/></g><g id="XMLID_873_"><path id="XMLID_958_" d="m411.47 372.672h-268.207l-21.983-242.505h-50.079v-30h77.483l21.982 242.505h240.804z" fill="#fff"/></g><g id="XMLID_180_"><g id="XMLID_181_"><path id="XMLID_273_" d="m275.86 342.67h135.61v30h-135.61z" fill="#fff5ca"/></g></g></g><g id="XMLID_928_"><g id="XMLID_901_"><circle id="XMLID_964_" cx="213.422" cy="412.912" fill="#797880" r="27.913"/></g><g id="XMLID_929_"><circle id="XMLID_962_" cx="340.806" cy="412.912" fill="#57545c" r="27.913"/></g></g></g></g></g></svg>